<?xml version="1.0" encoding="UTF-8" standalone="no"?>
<!-- Created with Inkscape (http://www.inkscape.org/) -->

<svg
   version="1.1"
   id="svg1"
   width="816"
   height="1056"
   viewBox="0 0 816 1056"
   sodipodi:docname="christmas-tree-template-blank-outline-rounded.svg"
   inkscape:version="1.3 (0e150ed6c4, 2023-07-21)"
   xmlns:inkscape="http://www.inkscape.org/namespaces/inkscape"
   xmlns:sodipodi="http://sodipodi.sourceforge.net/DTD/sodipodi-0.dtd"
   xmlns="http://www.w3.org/2000/svg"
   xmlns:svg="http://www.w3.org/2000/svg">
  <defs
     id="defs1" />
  <sodipodi:namedview
     id="namedview1"
     pagecolor="#505050"
     bordercolor="#ffffff"
     borderopacity="1"
     inkscape:showpageshadow="0"
     inkscape:pageopacity="0"
     inkscape:pagecheckerboard="1"
     inkscape:deskcolor="#505050"
     inkscape:zoom="0.75063135"
     inkscape:cx="286.42555"
     inkscape:cy="441.62824"
     inkscape:window-width="2256"
     inkscape:window-height="1398"
     inkscape:window-x="-11"
     inkscape:window-y="-11"
     inkscape:window-maximized="1"
     inkscape:current-layer="g1">
    <inkscape:page
       x="0"
       y="0"
       inkscape:label="1"
       id="page1"
       width="816"
       height="1056"
       margin="0"
       bleed="0" />
  </sodipodi:namedview>
  <g
     id="g1"
     inkscape:groupmode="layer"
     inkscape:label="1">
    <path
       style="fill:#000000"
       d="m 340.31629,976.99756 c -1.82839,-0.57704 -2.62396,-1.05399 -4.23481,-2.53882 -1.77426,-1.63546 -2.84264,-3.70721 -3.27002,-6.34107 -0.2182,-1.34472 -0.33116,-21.39755 -0.33275,-59.07177 l -0.002,-57.03596 -98.32,-0.0891 -98.32,-0.0891 -3.71667,-0.85088 c -18.90943,-4.32889 -32.676649,-17.89647 -36.643829,-36.11196 -0.72522,-3.32987 -0.83032,-12.80456 -0.17557,-15.82704 1.27063,-5.86546 3.58142,-11.52343 6.592349,-16.14133 0.75259,-1.15427 24.20465,-31.67736 52.11569,-67.8291 l 50.74734,-65.73043 -2.89109,-1.36336 c -13.40102,-6.31956 -22.60878,-17.8141 -25.75291,-32.14874 -0.83146,-3.79077 -0.83857,-12.7732 -0.0132,-16.62704 1.20731,-5.63696 3.36299,-10.8237 6.39584,-15.38891 0.98328,-1.4801 22.02337,-28.89592 46.75575,-60.92404 24.73237,-32.02812 44.86398,-58.3205 44.7369,-58.4275 -0.12708,-0.107 -1.41992,-0.51153 -2.87299,-0.89895 -12.76417,-3.40327 -23.75556,-12.38843 -29.67525,-24.25871 -4.90391,-9.83341 -5.91566,-20.81741 -2.88325,-31.30189 1.00832,-3.48627 3.67752,-9.13137 5.71943,-12.09606 0.82431,-1.19684 20.01435,-26.1627 42.64453,-55.4797 27.54556,-35.68478 41.01857,-53.38226 40.76089,-53.54151 -0.21169,-0.13083 -1.19928,-0.32374 -2.19465,-0.42868 -4.65383,-0.49066 -11.84706,-2.89871 -16.70951,-5.59377 -4.23311,-2.34626 -6.99682,-4.4639 -10.70025,-8.19887 -6.01562,-6.06686 -9.62507,-12.45255 -11.93215,-21.10988 -0.80497,-3.02062 -0.86117,-3.67012 -0.86117,-9.95153 0,-6.31629 0.0529,-6.91864 0.8801,-10.02642 1.41424,-5.31312 3.43201,-9.82007 6.32765,-14.13358 1.01755,-1.51581 87.98279,-114.3676 97.03579,-125.920004 4.60638,-5.878141 11.31691,-13.422739 15.95096,-17.933539 6.33653,-6.168019 11.56547,-9.889697 15.95882,-11.35864 5.34283,-1.786409 10.86454,0.465711 19.68,8.026822 6.31856,5.419489 17.04819,16.974693 24.59517,26.487607 7.15541,9.019334 91.84427,119.582444 93.18501,121.654994 9.53089,14.73326 9.0701,33.34522 -1.1981,48.39291 -6.58675,9.65264 -18.31232,17.14369 -30.18208,19.28226 -1.584,0.28539 -3.42668,0.61985 -4.09485,0.74324 l -1.21485,0.22435 41.50326,53.76 c 22.8268,29.568 42.15404,54.768 42.94943,56 4.44917,6.89147 6.77701,14.86047 6.77701,23.2 0,7.10042 -1.49931,13.26355 -4.81221,19.78125 -2.38077,4.68385 -5.10449,8.32038 -9.15171,12.21875 -6.05517,5.83246 -11.86137,9.01818 -22.07769,12.11349 -0.60384,0.18294 4.46468,6.87063 44.41719,58.60651 24.80434,32.12 45.90319,59.61099 46.88631,61.09109 3.33101,5.01482 5.66337,10.94689 6.66921,16.96222 0.70835,4.23626 0.5002,11.65417 -0.44074,15.70669 -2.89349,12.46186 -10.49538,22.83462 -21.56451,29.42471 -1.71278,1.01971 -4.12431,2.26831 -5.35896,2.77466 -1.23464,0.50635 -2.24528,1.03677 -2.24585,1.17873 -5.7e-4,0.14195 22.64202,29.58995 50.31687,65.44 27.67488,35.85004 50.98988,66.1899 51.81118,67.4219 3.0688,4.60332 5.4288,10.32914 6.7266,16.32 0.6547,3.02248 0.5496,12.49717 -0.1756,15.82704 -1.9706,9.0482 -6.0257,16.43849 -12.6601,23.07293 -6.8477,6.84764 -14.2032,10.79669 -24.5,13.15352 l -3.19999,0.73244 -98.32,0.0911 -98.32,0.0911 v 57.21719 c 0,39.90977 -0.10546,57.78765 -0.34863,59.10309 -0.67855,3.6706 -3.02482,6.73951 -6.31516,8.26016 l -1.49618,0.69143 -83.84,0.0598 c -66.75487,0.0476 -84.10084,-0.0225 -85.12,-0.34413 z m 167.62101,-3.69437 c 1.73372,-0.40241 3.49865,-1.72764 4.40254,-3.30573 l 0.77645,-1.3556 0.16,-59.74404 c 0.12969,-48.42644 0.2388,-59.82283 0.57597,-60.16 0.33878,-0.33877 18.8663,-0.44723 99.84,-0.58447 l 99.42403,-0.16851 3.12366,-0.7188 c 10.5339,-2.42407 18.9043,-7.21847 24.889,-14.25604 11.5812,-13.61853 13.3375,-31.54313 4.5425,-46.35952 -0.8068,-1.35926 -24.8402,-32.75126 -53.40753,-69.76 -38.2386,-49.53782 -51.9415,-67.50768 -51.9441,-68.11902 -0.005,-1.14328 0.72462,-1.70488 3.51799,-2.70837 13.97115,-5.019 24.60368,-17.19703 27.40459,-31.38799 0.75989,-3.85004 0.76493,-10.87043 0.0104,-14.4423 -1.17878,-5.57995 -3.60847,-11.18098 -6.74972,-15.55979 -0.76984,-1.07313 -22.07765,-28.73515 -47.3507,-61.47115 -33.85012,-43.84582 -45.95166,-59.73868 -45.95352,-60.3504 -0.004,-1.24133 0.83762,-1.76893 3.76329,-2.35978 8.40684,-1.6978 16.53893,-6.0391 22.47418,-11.99781 14.1703,-14.2263 16.09351,-35.45624 4.65022,-51.33315 -0.90337,-1.25337 -20.47756,-26.67555 -43.49821,-56.49372 -23.02065,-29.81818 -42.00582,-54.54428 -42.18926,-54.9469 -0.25673,-0.56345 -0.21161,-0.9181 0.19591,-1.54005 0.61389,-0.93693 0.97526,-1.03316 4.82379,-1.28455 7.78488,-0.50851 15.38255,-3.1487 22.41755,-7.79007 3.30869,-2.18292 8.67907,-7.66005 11.01095,-11.2298 4.87213,-7.45848 6.84482,-13.87784 6.84482,-22.27377 0,-8.14352 -2.12684,-15.15277 -6.60272,-21.76 C 553.7795,217.90829 465.56407,102.87419 461.96147,98.401856 445.56449,78.0464 431.52578,65.610623 424.95629,65.62192 c -6.67124,0.01147 -20.25111,12.493128 -36.01227,33.099936 -2.08651,2.728004 -23.52502,30.520004 -47.64113,61.760004 -24.1161,31.24 -44.61685,57.91545 -45.55721,59.27878 -6.88047,9.97519 -8.62892,22.88334 -4.66444,34.43578 5.57507,16.2457 20.83881,27.57066 38.74491,28.74687 3.46691,0.22773 4.41556,0.74642 4.18895,2.29039 -0.0764,0.52034 -16.02821,21.45385 -41.2471,54.12833 -49.17128,63.70804 -44.71644,57.873 -46.55542,60.97928 -6.09135,10.28914 -7.0636,22.6894 -2.66188,33.94995 5.27839,13.50325 17.21511,23.2502 32.21729,26.30708 3.10011,0.63169 4.22838,1.27562 4.22819,2.41314 -7e-5,0.40104 -18.66258,24.84172 -46.44911,60.8304 -25.54695,33.088 -47.09045,61.14526 -47.87446,62.34947 -2.67975,4.11604 -4.61941,8.88129 -5.70697,14.0206 -0.76453,3.61281 -0.77497,10.63084 -0.0215,14.43789 2.65083,13.39348 12.43007,25.25422 25.09257,30.43349 4.62094,1.89007 5.15063,2.30623 4.77169,3.74902 -0.11116,0.42324 -23.57584,31.04374 -52.14373,68.04555 -28.56789,37.00182 -52.60514,68.39382 -53.41611,69.76 -8.808019,14.83825 -7.057239,32.74049 4.53502,46.37212 5.98472,7.03757 14.35508,11.83197 24.88907,14.25604 l 3.12362,0.7188 99.42403,0.16851 c 80.9737,0.13724 99.50122,0.2457 99.84,0.58447 0.33717,0.33717 0.44628,11.73356 0.57597,60.16 l 0.16,59.74404 0.76295,1.33158 c 0.90248,1.5751 2.2147,2.61429 4.0115,3.17685 1.04461,0.32706 17.67908,0.41151 83.22555,0.42253 46.4846,0.008 82.44816,-0.10882 83.14101,-0.26963 z"
       id="path1" />
  </g>
</svg>
